<?xml version="1.0" encoding="UTF-8"?>
<svg id="Capa_2" data-name="Capa 2" xmlns="http://www.w3.org/2000/svg" viewBox="0 0 383.88 384.23">
  <defs>
    <style>
      .cls-1 {
        fill: #0b66c2;
      }

      .cls-2 {
        fill: #75a8db;
      }

      .cls-3 {
        fill: #337fcc;
      }

      .cls-4 {
        fill: #8db7e2;
      }

      .cls-5 {
        fill: #74a7dc;
      }

      .cls-6 {
        fill: #2375c8;
      }

      .cls-7 {
        fill: #8cb6e2;
      }

      .cls-8 {
        fill: #fefefe;
      }

      .cls-9 {
        fill: #80afdf;
      }

      .cls-10 {
        fill: #86b3e0;
      }

      .cls-11 {
        fill: #4388d0;
      }
    </style>
  </defs>
  <g id="Capa_1-2" data-name="Capa 1">
    <path class="cls-1" d="M161.51,0c2.04.3,4.04.55,5.99.75,1.44-.22,2.93-.47,4.49-.75h41.92c1.93.64,4.06.64,5.99,0h8.98c4.56.29,9.05.54,13.47.75l5.99.75c.32-.42.64-.75.95-.75,24.8.02,50.6.22,74.92,5.99,48.63,11.54,56.28,51.9,58.11,95.53.44,17.9.94,35.56,1.51,52.98v73.5c.38,29.97-1.41,59.62-5.39,88.97-8.38,43.42-33,57.73-74.56,63.06-24.91,2.1-49.66,3.18-74.26,3.22-24.91-.53-49.96.71-74.85,0-17.38-.28-34.76-.8-52.13-1.51-42.87-1.77-83.35-9.31-95.07-57.2-5.88-24.02-6.98-52.11-6.97-76.79,0-.33.32-.67.73-1,.6-1.68.66-3.57,0-5.25-1.48-4.24-1.14-9.67-.75-14.25.62-2.97.66-6.03,0-9-.78-17.97-.76-36.03,0-54,.67-2.69.61-5.55,0-8.25-.38-4.84-.66-10.45.75-15l.75-5.25c-.99-2.2-1.09-4.48-1.06-6.85.22-15.78,1.14-31.45,2.66-46.9C7.57,43.22,21,15.33,62.63,6.21,86.38,1.01,110.99.77,135.11.75c.32,0,.64.33.95.75l5.99-.75c4.59-.16,9.08-.41,13.47-.75h5.99Z"/>
    <g>
      <path class="cls-11" d="M167.5,0c.65.21.64.46,0,.75-1.85.02-4.77.56-5.99-.75h5.99Z"/>
      <path class="cls-3" d="M219.9,0c-1.18,1.26-4.84,1.25-5.99,0h5.99Z"/>
      <path class="cls-6" d="M171.99,0c-.81,1.26-3.08.73-4.49.75v-.75h4.49Z"/>
      <g>
        <path class="cls-8" d="M204.93,170.25c7.93-10.62,17.5-17.27,30.68-19.88,45.21-8.97,70.42,13.76,74.85,57.76,3.2,31.74-.54,66.62.4,98.64-1.01,3.21-3.4,4.85-6.74,5.25-7.87.94-29.52.89-37.44-.02-4.57-.52-6.72-2.43-7.15-7.09-2.27-24.93,5.61-81.64-5.35-101.14-8.11-14.42-30.29-15.01-40.66-2.78-16.36,19.29-6.92,77.75-9.31,103.92-.42,4.59-2.56,6.71-7.11,7.12-8.27.76-27.92.95-35.98-.02-3.33-.4-5.73-2.04-6.74-5.25-.5-50.13-.78-100.55.14-150.65.71-2.33,2.72-4.19,5.16-4.58,6.82-1.08,31.72-.89,38.9-.06,3.06.36,6.35,3.49,6.35,6.39v12.38Z"/>
        <g>
          <path class="cls-8" d="M85.72,151.69l39.44-.14c3.84.79,5.45,3.85,6.07,7.42l.36,142.94c-.18,4.3-1.98,9-6.56,9.93-5.2,1.05-31.53.9-37.19.11-3.37-.48-5.95-2.54-6.86-5.88l-.34-147.44c.39-3.25,2.07-5.65,5.07-6.92Z"/>
          <path class="cls-8" d="M101.45,72.19c43.78-5.55,50.01,60.16,9.46,64.98-44.89,5.34-50.6-59.76-9.46-64.98Z"/>
        </g>
      </g>
      <path class="cls-5" d="M.58,228c-.08-2.99.06-6.01,0-9,1.27,2.15,1.25,7,0,9Z"/>
      <path class="cls-2" d="M.58,165c.04-2.74-.07-5.51,0-8.25,1.28,1.9,1.25,6.5,0,8.25Z"/>
      <path class="cls-7" d="M142.05.75c-1.24,1.34-4.11.74-5.99.75,1.24-1.34,4.11-.73,5.99-.75Z"/>
      <path class="cls-4" d="M248.34,1.5c-1.87-.01-4.75.59-5.99-.75,1.87.02,4.75-.59,5.99.75Z"/>
      <path class="cls-10" d="M1.33,141.75c.02-1.64-.55-4.23.75-5.25-.02,1.64.55,4.23-.75,5.25Z"/>
      <path class="cls-9" d="M1.33,247.5c-.08-1.74.07-3.51,0-5.25,1.24.95,1.24,4.3,0,5.25Z"/>
    </g>
  </g>
</svg>