<?xml version="1.0" encoding="UTF-8"?>
<svg id="Capa_2" data-name="Capa 2" xmlns="http://www.w3.org/2000/svg" viewBox="0 0 141.24 215.89">
  <defs>
    <style>
      .cls-1 {
        fill: #fff;
      }
    </style>
  </defs>
  <g id="Capa_1-2" data-name="Capa 1">
    <g>
      <path class="cls-1" d="M38.52,0v162.19c-13.48.57-26.41,2.57-38.49,5.78-.01,0-.02,0-.03.01V0h38.52Z"/>
      <path class="cls-1" d="M141.24,113.81c0,23.72-6.71,46.03-18.26,65.15-11.76-5.84-24.96-10.37-39.15-13.26,8.74-15.4,13.78-33.11,13.78-51.89,0-37.61-15.16-84.17-49.82-89.94-4.69-.78-9.27.31-9.27,5.07V0c15.74,0,31.03,3.77,44.67,10.76,13.63,6.98,25.6,17.18,34.68,30.04,14.65,20.73,23.37,45.95,23.37,73.01Z"/>
      <path class="cls-1" d="M121.74,186.21v.45c-2.01,3.2-4.94,7.48-8.66,11.97-2.96-2.38-6.55-4.47-10.32-6.28,4.58-6.05,7.16-11.14,7.16-11.14,7.55,2.82,11.82,5,11.82,5Z"/>
      <path class="cls-1" d="M2.95,197.84v-.45c2.01-3.2,4.94-7.48,8.66-11.97,2.96,2.38,6.55,4.47,10.32,6.28-4.58,6.05-7.16,11.14-7.16,11.14-7.55-2.82-11.82-5-11.82-5Z"/>
      <path class="cls-1" d="M112.08,199.55c-2.01,2.43-4.25,4.92-6.7,7.32-3.32,3.27-7.03,6.39-11.08,9.02h-13.5l7.39-9.02c5.5-3.89,10.11-9.02,13.57-13.6,3.77,1.81,7.36,3.9,10.32,6.28Z"/>
      <path class="cls-1" d="M12.54,184.56c2.01-2.43,4.25-4.92,6.7-7.32,3.32-3.27-22.29-.41-18.24-3.04,5.6-1.78,12.28-3.47,19.9-4.6,6.9-1.02,13.18-1.37,18.62-1.38-1.03,3.01-2.06,6.01-3.09,9.02-5.5,3.89-10.11,9.02-13.57,13.6-3.77-1.81-7.36-3.9-10.32-6.28Z"/>
      <path class="cls-1" d="M78.01,214.97h-10.69l-21.64-46.17c2.9.06,5.74.19,8.52.38l23.81,45.79Z"/>
      <path class="cls-1" d="M110.28,181.34s-2.58,5.09-7.16,11.14c-12.71-6.15-25.13,10.49-25.13,10.49l-17.15-33.13c21.22,2.15,38.67,7.48,49.44,11.5Z"/>
      <path class="cls-1" d="M14.64,202.84s2.58-5.09,7.16-11.14c12.71,6.15,25.13-10.49,25.13-10.49l17.15,33.13c-21.22-2.15-38.67-7.48-49.44-11.5Z"/>
    </g>
  </g>
</svg>